# xmcd
#
# Track frame offsets:
#	150
#	22243
#	40220
#	68649
#	87547
#	120057
#
# Disc length: 1891 seconds
#
# Revision: 1
# Processed by: cddbd v1.5.1PL0 Copyright (c) Steve Scherf et al.
# Submitted via: CDex 1.50Beta5
#
DISCID=46076106
DTITLE=中島美嘉 - RESISTANCE
DYEAR=2002
DGENRE=Pop
TTITLE0=RESISTANCE
TTITLE1=HEAVEN ON EARTH
TTITLE2=aroma
TTITLE3=LAST WALTZ
TTITLE4=STARS (Live Unplugged)
TTITLE5=RESISTANCE (Instrumental)
EXTD=
EXTT0=
EXTT1=
EXTT2=
EXTT3=
EXTT4=
EXTT5=
PLAYORDER=
